<svg width="200" height="200" viewBox="0 0 200 200" fill="none" xmlns="http://www.w3.org/2000/svg">
<circle cx="100" cy="100" r="100" fill="#EAE2B7"/>
<circle cx="100" cy="100" r="90" fill="#FFE974"/>
<g filter="url(#filter0_d_1359_51)">
<path d="M144.016 116.469C142.723 116.469 141.615 116.015 140.692 115.105C139.769 114.196 139.314 113.088 139.328 111.782C139.314 110.503 139.769 109.409 140.692 108.5C141.615 107.591 142.723 107.137 144.016 107.137C145.266 107.137 146.353 107.591 147.276 108.5C148.213 109.409 148.689 110.503 148.703 111.782C148.689 112.648 148.462 113.436 148.022 114.147C147.595 114.857 147.027 115.425 146.317 115.851C145.621 116.263 144.854 116.469 144.016 116.469Z" fill="black"/>
</g>
<g filter="url(#filter1_d_1359_51)">
<path d="M114.229 116.661C112.155 116.661 110.287 116.291 108.625 115.553C106.978 114.8 105.671 113.692 104.705 112.229C103.753 110.766 103.277 108.962 103.277 106.817C103.277 104.97 103.618 103.443 104.3 102.236C104.982 101.028 105.912 100.063 107.091 99.3382C108.27 98.6137 109.598 98.0668 111.076 97.6975C112.567 97.314 114.108 97.037 115.699 96.8666C117.617 96.6677 119.172 96.4901 120.365 96.3339C121.559 96.1634 122.425 95.9078 122.965 95.5668C123.519 95.2117 123.796 94.6649 123.796 93.9262V93.7984C123.796 92.1933 123.32 90.9504 122.368 90.0697C121.417 89.189 120.046 88.7487 118.256 88.7487C116.367 88.7487 114.868 89.1606 113.76 89.9845C112.667 90.8083 111.928 91.7813 111.544 92.9035L104.343 91.8808C104.911 89.8921 105.848 88.2302 107.155 86.895C108.462 85.5455 110.06 84.537 111.949 83.8694C113.838 83.1876 115.926 82.8467 118.213 82.8467C119.79 82.8467 121.36 83.0313 122.922 83.4007C124.485 83.77 125.912 84.3808 127.205 85.233C128.498 86.0711 129.534 87.2146 130.316 88.6634C131.111 90.1123 131.509 91.9234 131.509 94.0967V116H124.094V111.504H123.838C123.37 112.413 122.709 113.266 121.857 114.061C121.019 114.842 119.961 115.475 118.682 115.957C117.418 116.426 115.934 116.661 114.229 116.661ZM116.232 110.993C117.78 110.993 119.123 110.688 120.259 110.077C121.395 109.452 122.269 108.628 122.88 107.605C123.505 106.582 123.817 105.467 123.817 104.26V100.403C123.576 100.602 123.164 100.787 122.581 100.957C122.013 101.128 121.374 101.277 120.664 101.405C119.953 101.533 119.25 101.646 118.554 101.746C117.858 101.845 117.255 101.93 116.743 102.002C115.593 102.158 114.563 102.413 113.654 102.769C112.745 103.124 112.027 103.621 111.502 104.26C110.976 104.885 110.713 105.695 110.713 106.689C110.713 108.109 111.232 109.182 112.269 109.906C113.306 110.631 114.627 110.993 116.232 110.993Z" fill="black"/>
</g>
<g filter="url(#filter2_d_1359_51)">
<path d="M50.9629 116V83.2728H58.335V88.8339H58.7186C59.4004 86.9589 60.5297 85.4958 62.1064 84.4447C63.6831 83.3793 65.5652 82.8467 67.7527 82.8467C69.9686 82.8467 71.8365 83.3865 73.3564 84.466C74.8904 85.5313 75.97 86.9873 76.595 88.8339H76.9359C77.6603 87.0157 78.8819 85.5668 80.6007 84.4873C82.3336 83.3936 84.3862 82.8467 86.7583 82.8467C89.7697 82.8467 92.2271 83.7984 94.1305 85.7018C96.0339 87.6052 96.9856 90.3822 96.9856 94.0328V116H89.2512V95.2259C89.2512 93.1947 88.7115 91.7103 87.6319 90.7728C86.5524 89.8211 85.2314 89.3453 83.6689 89.3453C81.8081 89.3453 80.3521 89.9276 79.301 91.0924C78.264 92.243 77.7456 93.7416 77.7456 95.5882V116H70.1816V94.9063C70.1816 93.216 69.6703 91.8666 68.6476 90.858C67.639 89.8495 66.318 89.3453 64.6845 89.3453C63.5765 89.3453 62.568 89.6293 61.6589 90.1975C60.7498 90.7515 60.0254 91.5399 59.4856 92.5626C58.9458 93.5711 58.676 94.7501 58.676 96.0995V116H50.9629Z" fill="black"/>
</g>
<defs>
<filter id="filter0_d_1359_51" x="135.328" y="107.137" width="17.375" height="17.332" filterUnits="userSpaceOnUse" color-interpolation-filters="sRGB">
<feFlood flood-opacity="0" result="BackgroundImageFix"/>
<feColorMatrix in="SourceAlpha" type="matrix" values="0 0 0 0 0 0 0 0 0 0 0 0 0 0 0 0 0 0 127 0" result="hardAlpha"/>
<feOffset dy="4"/>
<feGaussianBlur stdDeviation="2"/>
<feComposite in2="hardAlpha" operator="out"/>
<feColorMatrix type="matrix" values="0 0 0 0 0 0 0 0 0 0 0 0 0 0 0 0 0 0 0.25 0"/>
<feBlend mode="normal" in2="BackgroundImageFix" result="effect1_dropShadow_1359_51"/>
<feBlend mode="normal" in="SourceGraphic" in2="effect1_dropShadow_1359_51" result="shape"/>
</filter>
<filter id="filter1_d_1359_51" x="99.2773" y="82.8467" width="36.2324" height="41.8135" filterUnits="userSpaceOnUse" color-interpolation-filters="sRGB">
<feFlood flood-opacity="0" result="BackgroundImageFix"/>
<feColorMatrix in="SourceAlpha" type="matrix" values="0 0 0 0 0 0 0 0 0 0 0 0 0 0 0 0 0 0 127 0" result="hardAlpha"/>
<feOffset dy="4"/>
<feGaussianBlur stdDeviation="2"/>
<feComposite in2="hardAlpha" operator="out"/>
<feColorMatrix type="matrix" values="0 0 0 0 0 0 0 0 0 0 0 0 0 0 0 0 0 0 0.25 0"/>
<feBlend mode="normal" in2="BackgroundImageFix" result="effect1_dropShadow_1359_51"/>
<feBlend mode="normal" in="SourceGraphic" in2="effect1_dropShadow_1359_51" result="shape"/>
</filter>
<filter id="filter2_d_1359_51" x="46.9629" y="82.8467" width="54.0234" height="41.1533" filterUnits="userSpaceOnUse" color-interpolation-filters="sRGB">
<feFlood flood-opacity="0" result="BackgroundImageFix"/>
<feColorMatrix in="SourceAlpha" type="matrix" values="0 0 0 0 0 0 0 0 0 0 0 0 0 0 0 0 0 0 127 0" result="hardAlpha"/>
<feOffset dy="4"/>
<feGaussianBlur stdDeviation="2"/>
<feComposite in2="hardAlpha" operator="out"/>
<feColorMatrix type="matrix" values="0 0 0 0 0 0 0 0 0 0 0 0 0 0 0 0 0 0 0.25 0"/>
<feBlend mode="normal" in2="BackgroundImageFix" result="effect1_dropShadow_1359_51"/>
<feBlend mode="normal" in="SourceGraphic" in2="effect1_dropShadow_1359_51" result="shape"/>
</filter>
</defs>
</svg>
